General
Complete name: Cabin.Fever.UNRATED.DiRECTORS.CUT.2002.BDRiP.AC3-5.1.XviD-AXED.avi
Format: AVI
Format/Info: Audio Video Interleave
File size: 1.37 GiB
Duration: 1h 37mn
Overall bit rate: 2 005 Kbps

Video
ID: 0
Format: MPEG-4 Visual
Format profile: Advanced Simple@L4
Format settings, BVOP: 2
Format settings, QPel: No
Format settings, GMC: No warppoints
Format settings, Matrix: Default (H.263)
Muxing mode: Packed bitstream
Codec ID: XVID
Codec ID/Hint: XviD
Duration: 1h 37mn
Bit rate: 1 550 Kbps
Width: 720 pixels
Height: 304 pixels
Display aspect ratio: 2.35:1
Frame rate: 23.976 fps
Color space: YUV
Chroma subsampling: 4:2:0
Bit depth: 8 bits
Scan type: Progressive
Compression mode: Lossy
Bits/(Pixel*Frame): 0.295
Stream size: 1.06 GiB (77%)
Writing library: XviD 1.1.2 (UTC 2006-11-01)

Audio
ID: 1
Format: AC-3
Format/Info: Audio Coding 3
Mode extension: CM (complete main)
Format settings, Endianness: Big
Codec ID: 2000
Duration: 1h 37mn
Bit rate mode: Constant
Bit rate: 448 Kbps
Channel(s): 6 channels
Channel positions: Front: L C R, Side: L R, LFE
Sampling rate: 48.0 KHz
Bit depth: 16 bits
Compression mode: Lossy
Stream size: 313 MiB (22%)
Alignment: Aligned on interleaves
Interleave, duration: 64 ms (1.53 video frames)
Interleave, preload duration: 192 ms
Title: cabin.fever.dc
 
http://www.imdb.com/title/tt0303816/
 
http://img19.imageshack.us/img19/8785/scrncap00004.png 
http://img3.imageshack.us/img3/8746/scrncap00023.png 
http://img805.imageshack.us/img805/2090/scrncap00024.png 
http://img39.imageshack.us/img39/3739/scrncap00027.png